<svg xmlns="http://www.w3.org/2000/svg" viewBox="0 0 900 200" width="900" height="200">
  <defs>
    <linearGradient id="sky" x1="0%" y1="0%" x2="0%" y2="100%">
      <stop offset="0%" style="stop-color:#0a0a2e"/>
      <stop offset="40%" style="stop-color:#1a1a4e"/>
      <stop offset="100%" style="stop-color:#2d1b4e"/>
    </linearGradient>
    <radialGradient id="moonGlow" cx="50%" cy="50%" r="50%">
      <stop offset="0%" style="stop-color:#fffde7;stop-opacity:0.3"/>
      <stop offset="100%" style="stop-color:#fffde7;stop-opacity:0"/>
    </radialGradient>
    <linearGradient id="mt1" x1="0%" y1="0%" x2="0%" y2="100%">
      <stop offset="0%" style="stop-color:#1a1a3e"/>
      <stop offset="100%" style="stop-color:#0d0d2b"/>
    </linearGradient>
    <linearGradient id="mt2" x1="0%" y1="0%" x2="0%" y2="100%">
      <stop offset="0%" style="stop-color:#2a2a5e"/>
      <stop offset="100%" style="stop-color:#1a1a3e"/>
    </linearGradient>
    <linearGradient id="mt3" x1="0%" y1="0%" x2="0%" y2="100%">
      <stop offset="0%" style="stop-color:#3a3a6e"/>
      <stop offset="100%" style="stop-color:#2a2a4e"/>
    </linearGradient>
  </defs>
  <rect width="900" height="200" fill="url(#sky)"/>
  <circle cx="50" cy="25" r="1.5" fill="#fff" opacity="0.8"/>
  <circle cx="150" cy="40" r="1" fill="#fff" opacity="0.6"/>
  <circle cx="250" cy="15" r="1.5" fill="#fff" opacity="0.9"/>
  <circle cx="350" cy="30" r="1" fill="#fff" opacity="0.5"/>
  <circle cx="450" cy="20" r="2" fill="#fff" opacity="0.7"/>
  <circle cx="550" cy="45" r="1" fill="#fff" opacity="0.6"/>
  <circle cx="650" cy="15" r="1.5" fill="#fff" opacity="0.8"/>
  <circle cx="750" cy="35" r="1" fill="#fff" opacity="0.5"/>
  <circle cx="850" cy="25" r="1.5" fill="#fff" opacity="0.7"/>
  <circle cx="100" cy="60" r="0.8" fill="#fff" opacity="0.4"/>
  <circle cx="200" cy="55" r="1.2" fill="#fff" opacity="0.6"/>
  <circle cx="300" cy="50" r="0.8" fill="#fff" opacity="0.5"/>
  <circle cx="500" cy="55" r="1" fill="#fff" opacity="0.4"/>
  <circle cx="700" cy="50" r="0.8" fill="#fff" opacity="0.5"/>
  <circle cx="800" cy="60" r="1.2" fill="#fff" opacity="0.6"/>
  <circle cx="80" cy="80" r="0.5" fill="#fff" opacity="0.3"/>
  <circle cx="420" cy="70" r="0.5" fill="#fff" opacity="0.3"/>
  <circle cx="600" cy="65" r="0.5" fill="#fff" opacity="0.3"/>
  <circle cx="720" cy="55" r="50" fill="url(#moonGlow)"/>
  <circle cx="720" cy="55" r="18" fill="#fffde7"/>
  <circle cx="715" cy="50" r="15" fill="#fff9c4" opacity="0.5"/>
  <polygon points="0,160 50,100 100,140 150,90 200,130 250,85 300,120 350,95 400,130 450,80 500,110 550,90 600,120 650,85 700,110 750,75 800,100 850,90 900,130 900,200 0,200" fill="url(#mt1)"/>
  <polygon points="0,180 80,130 150,160 220,120 300,150 380,110 450,140 520,100 600,130 680,115 750,140 820,110 900,150 900,200 0,200" fill="url(#mt2)"/>
  <polygon points="0,200 60,160 120,180 180,140 240,170 320,150 400,175 480,145 560,165 640,140 720,170 800,150 860,175 900,160 900,200 0,200" fill="url(#mt3)"/>
  <rect x="0" y="185" width="900" height="15" fill="#0d0d1a"/>
  <polygon points="30,200 35,170 40,200" fill="#0d0d1a"/>
  <polygon points="50,200 56,165 62,200" fill="#0d0d1a"/>
  <polygon points="70,200 74,175 78,200" fill="#0d0d1a"/>
  <polygon points="120,200 125,175 130,200" fill="#0d0d1a"/>
  <polygon points="140,200 145,168 150,200" fill="#0d0d1a"/>
  <polygon points="160,200 163,178 166,200" fill="#0d0d1a"/>
  <polygon points="750,200 755,172 760,200" fill="#0d0d1a"/>
  <polygon points="770,200 776,165 782,200" fill="#0d0d1a"/>
  <polygon points="800,200 804,178 808,200" fill="#0d0d1a"/>
  <polygon points="830,200 835,170 840,200" fill="#0d0d1a"/>
  <polygon points="860,200 864,175 868,200" fill="#0d0d1a"/>
  <line x1="180" y1="35" x2="210" y2="45" stroke="#fff" stroke-width="1.5" opacity="0.7"/>
  <line x1="180" y1="35" x2="195" y2="40" stroke="#fff" stroke-width="2.5" opacity="0.9"/>
</svg>
